<?xml version="1.0" encoding="utf-8"?>
<!-- Generator: Adobe Illustrator 16.0.0, SVG Export Plug-In . SVG Version: 6.00 Build 0)  -->
<!DOCTYPE svg PUBLIC "-//W3C//DTD SVG 1.1//EN" "http://www.w3.org/Graphics/SVG/1.1/DTD/svg11.dtd">
<svg version="1.1" id="Layer_1" xmlns="http://www.w3.org/2000/svg" xmlns:xlink="http://www.w3.org/1999/xlink" x="0px" y="0px"
	 width="612px" height="612px" viewBox="0 0 612 612" enable-background="new 0 0 612 612" xml:space="preserve">
<g>
	<defs>
		<rect id="SVGID_1_" width="612" height="612"/>
	</defs>
	<clipPath id="SVGID_2_">
		<use xlink:href="#SVGID_1_"  overflow="visible"/>
	</clipPath>
	<path clip-path="url(#SVGID_2_)" fill="#FFFFFF" d="M612,306c0,169-137,306-306,306S0,475,0,306S137,0,306,0S612,137,612,306"/>
	<circle clip-path="url(#SVGID_2_)" fill="none" stroke="#999998" stroke-miterlimit="10" cx="306" cy="306" r="306"/>
	<path clip-path="url(#SVGID_2_)" fill="#656666" d="M589.9,306.7c0,157.8-127.9,285.7-285.6,285.7
		c-157.8,0-285.6-127.9-285.6-285.7S146.5,21,304.3,21C462,21,589.9,148.9,589.9,306.7"/>
	<polygon clip-path="url(#SVGID_2_)" fill="#D9E028" points="560,357.9 358.2,430.3 431.5,229 560,229 	"/>
</g>
<polygon fill="#C3C92F" points="560,229 559.5,229 358.4,430 358.6,430.1 560,357.9 "/>
<g>
	<defs>
		<rect id="SVGID_3_" width="612" height="612"/>
	</defs>
	<clipPath id="SVGID_4_">
		<use xlink:href="#SVGID_3_"  overflow="visible"/>
	</clipPath>
	<path clip-path="url(#SVGID_4_)" fill="#FFFFFF" d="M93.8,261.1c15,0,27.1,10.1,27.1,25.5c0,11.6-6.5,19.8-15.9,23.4l11,19.2h-7.6
		L98.6,312H61.2v17.1h-6.9v-68.1H93.8z M61.2,305.6h32.6c12.1,0,20.3-7.3,20.3-19.1c0-11.7-8.2-19.1-20.3-19.1H61.2V305.6z"/>
	<path clip-path="url(#SVGID_4_)" fill="#FFFFFF" d="M181.4,261.1l28.9,68.1h-7.1l-4.9-11.4h-55.1l-5,11.4h-7.4l29.8-68.1H181.4z
		 M145.9,311.2h49.4L177,267.4h-12.6L145.9,311.2z"/>
	<path clip-path="url(#SVGID_4_)" fill="#FFFFFF" d="M255.5,261.1c20.2,0,36.4,12.3,36.4,34c0,21.7-16.9,34.1-36.4,34.1h-32.9v-68.1
		H255.5z M229.6,322.9h25.1c18.7,0,30.4-10.7,30.4-27.8c0-17.1-11.7-27.7-30.4-27.7h-25.1V322.9z"/>
	<rect x="304.3" y="261.1" clip-path="url(#SVGID_4_)" fill="#FFFFFF" width="6.9" height="68.1"/>
	<path clip-path="url(#SVGID_4_)" fill="#FFFFFF" d="M361.3,330.9c-21.8,0-37.8-14-37.8-35.7c0-21.7,16-35.7,37.8-35.7
		s37.8,14,37.8,35.7C399,316.8,383,330.9,361.3,330.9 M361.3,324.5c17.4,0,30.9-10.6,30.9-29.3c0-18.7-13.5-29.3-30.9-29.3
		c-17.4,0-30.8,10.6-30.9,29.3C330.5,313.9,343.9,324.5,361.3,324.5"/>
	<polygon clip-path="url(#SVGID_4_)" fill="#989898" points="65.2,352.1 65.2,366.5 63.3,366.5 63.3,353.7 56.2,353.7 56.2,366.5 
		54.3,366.5 54.3,352.1 	"/>
	<path clip-path="url(#SVGID_4_)" fill="#989898" d="M80.6,359.3c0,5-3.2,7.5-6.5,7.5c-3.3,0-6.4-2.6-6.4-7.5c0-5,3.2-7.6,6.5-7.6
		S80.6,354.3,80.6,359.3 M78.6,359.3c0-4-2.1-5.9-4.4-5.9c-2.3,0-4.5,1.9-4.5,5.9c0,4,1.9,5.9,4.4,5.9
		C76.7,365.2,78.6,363.3,78.6,359.3"/>
	<path clip-path="url(#SVGID_4_)" fill="#989898" d="M80.9,364.8h0.9c1.4-1,2.2-4,2.2-12.8h9.2v12.8h1.6v6h-1.2l-0.7-4.4H82.8
		l-0.7,4.4h-1.2V364.8z M91.3,364.8v-11.1h-5.5c0,4.3-0.2,8.8-1.8,11.1H91.3z"/>
	<path clip-path="url(#SVGID_4_)" fill="#989898" d="M107.9,365.2l-0.3,1.4c-2.3,0-3.4-0.8-4.3-4.6c-0.5-2.3-1.5-2.4-3.2-2.4h-1.3
		v6.8H97v-14.4h1.9v6h1.6c1.3,0,2.5-0.3,2.8-2.1c0.8-3.7,2-4.1,4-4.1l0.2,1.2c-1,0.3-1.9,0.6-2.2,2.9c-0.1,0.9-0.5,1.6-1.1,2.1
		c-0.7,0.6-1.3,0.6-1.3,0.6v0.1c0,0,0.7,0.1,1.3,0.7c0.6,0.6,0.9,1.4,1.1,2.5C105.7,364.3,106.6,364.9,107.9,365.2"/>
	<path clip-path="url(#SVGID_4_)" fill="#989898" d="M119.7,358v8.5h-1.5c0,0-0.2-1.1-0.3-2.2c-1,1-2.8,2.3-5,2.3
		c-2.6,0-4.3-1.4-4.3-3.7c0-2.7,1.9-4.7,9.2-4.8V358c0-3.6-1-4.5-3.7-4.5c-1.9,0-4.2,0.8-4.2,0.8l-0.4-1.1c0,0,2.4-1.3,5.1-1.3
		C118,351.9,119.7,353.3,119.7,358 M117.9,362.4v-2.7c-4.5,0-7.3,0.8-7.3,3.1c0,1.6,1.2,2.2,2.5,2.2
		C114.8,365.1,116.5,364,117.9,362.4"/>
	<path clip-path="url(#SVGID_4_)" fill="#989898" d="M132.5,364.4l0.4,1.1c0,0-1.6,1.3-4.6,1.3c-3.3,0-6.1-2.7-6.1-7.4
		c0-4.7,2.7-7.7,6-7.7c2.7,0,4.4,1.3,4.4,1.3l-0.4,1.1c0,0-1.5-0.8-3.5-0.8c-2.7,0-4.6,2.5-4.6,6.1c0,3.5,2,5.8,4.7,5.8
		C131,365.2,132.5,364.4,132.5,364.4"/>
	<polygon clip-path="url(#SVGID_4_)" fill="#989898" points="144.9,352.1 144.9,353.7 140.3,353.7 140.3,366.5 138.4,366.5 
		138.4,353.7 133.8,353.7 133.8,352.1 	"/>
	<path clip-path="url(#SVGID_4_)" fill="#989898" d="M167.1,359.3c0,5-3.2,7.5-6.5,7.5c-3.3,0-6.4-2.6-6.4-7.5c0-5,3.2-7.6,6.5-7.6
		C163.9,351.7,167.1,354.3,167.1,359.3 M165.1,359.3c0-4-2.1-5.9-4.4-5.9c-2.3,0-4.5,1.9-4.5,5.9c0,4,1.9,5.9,4.4,5.9
		C163.2,365.2,165.1,363.3,165.1,359.3"/>
	<path clip-path="url(#SVGID_4_)" fill="#989898" d="M177.3,352.1h5.2c2.5,0,4.4,1.1,4.4,3.6c0,2.5-2.2,3.1-2.2,3.1v0.1
		c0,0,3.2,0.4,3.2,3.6c0,2.7-2,4.1-4.5,4.1h-6.2V352.1z M179.1,353.6v4.5h3.4c1.6,0,2.6-1,2.6-2.4c0-1.5-1.1-2.1-3.1-2.1H179.1z
		 M179.1,359.8v5.2h3.7c2.6,0,3.2-1.1,3.2-2.6c0-1.7-1.3-2.5-3.4-2.5H179.1z"/>
	<path clip-path="url(#SVGID_4_)" fill="#989898" d="M200.5,364.5l0.4,1.1c0,0-1.9,1.3-4.7,1.3c-3.8,0-6.5-2.7-6.5-7.4
		c0-4.8,3.1-7.7,6.3-7.7c4.1,0,5.1,4.1,5.1,7.6l-9.5,0.2c0,4,2.6,5.7,4.9,5.7C199,365.2,200.5,364.5,200.5,364.5 M191.7,358.3
		c0.6-0.1,2.7-0.4,7.5-0.5c-0.1-2.3-1.1-4.5-3.2-4.5C194.1,353.3,192.1,355.1,191.7,358.3"/>
	<path clip-path="url(#SVGID_4_)" fill="#989898" d="M215.5,359.7c0,4.4-2,7.1-6,7.1c-3.3,0-5.9-2.5-5.9-7.1v-4.3
		c0-7.1,3.5-8.7,7.7-9.7l3.9-0.8l0.4,1.7l-3,0.6c-5.9,1.3-6.8,3.2-7.1,8.2c0.9-1.4,2.4-2.4,4.7-2.4
		C213.2,353,215.5,355.3,215.5,359.7 M213.5,359.7c0-3.2-1.2-5.1-3.5-5.1c-2.3,0-4.1,1.9-4.5,3.6v1.6c0,3.7,1.5,5.4,4,5.4
		C212,365.1,213.5,363.4,213.5,359.7"/>
	<rect x="217.1" y="357.5" clip-path="url(#SVGID_4_)" fill="#989898" width="9.3" height="1.9"/>
	<path clip-path="url(#SVGID_4_)" fill="#989898" d="M228.5,352.1h1.5c0,0,0.2,1.1,0.3,2.2c0.9-1.1,2.4-2.5,4.5-2.5c3.8,0,5,3.4,5,7
		c0,6.2-2.8,8.1-6.5,8.1c-1.3,0-2.4-0.6-3-1v7.4h-1.9V352.1z M234.7,353.3c-1.7,0-3,1.2-4.3,2.9v7.9c0.5,0.5,1.5,1.1,2.9,1.1
		c2.3,0,4.6-0.6,4.6-6.6C237.9,356,237.1,353.3,234.7,353.3"/>
	<path clip-path="url(#SVGID_4_)" fill="#989898" d="M252.6,358v8.5h-1.5c0,0-0.2-1.1-0.3-2.2c-1,1-2.8,2.3-5,2.3
		c-2.6,0-4.3-1.4-4.3-3.7c0-2.7,1.9-4.7,9.2-4.8V358c0-3.6-1-4.5-3.7-4.5c-1.9,0-4.2,0.8-4.2,0.8l-0.4-1.1c0,0,2.4-1.3,5.1-1.3
		C250.8,351.9,252.6,353.3,252.6,358 M250.8,362.4v-2.7c-4.5,0-7.3,0.8-7.3,3.1c0,1.6,1.2,2.2,2.5,2.2
		C247.7,365.1,249.4,364,250.8,362.4"/>
	<path clip-path="url(#SVGID_4_)" fill="#989898" d="M257.5,359.8V358h2.7c1.8,0,2.7-1,2.7-2.5c0-1.6-1.4-2.2-3.4-2.2
		c-2.1,0-3.9,0.7-3.9,0.7l-0.4-1.1c0,0,2.3-1.2,4.6-1.2c2.8,0,4.9,1.3,4.9,3.8c0,2.5-2.4,3.2-2.4,3.2v0.1c0,0,2.9,0.4,2.9,3.8
		c0,2.7-2.6,4.2-5.3,4.2c-2.7,0-5-1.3-5-1.3l0.4-1.2c0,0,2,0.8,4.4,0.8c2.9,0,3.7-1.3,3.7-2.6c0-1.8-0.7-2.8-3.1-2.8H257.5z"/>
	<path clip-path="url(#SVGID_4_)" fill="#989898" d="M268,352.1h1.5c0,0,0.2,1.1,0.3,2.2c0.9-1.1,2.4-2.5,4.5-2.5c3.8,0,5,3.4,5,7
		c0,6.2-2.8,8.1-6.5,8.1c-1.3,0-2.4-0.6-3-1v7.4H268V352.1z M274.1,353.3c-1.7,0-3,1.2-4.3,2.9v7.9c0.5,0.5,1.5,1.1,2.9,1.1
		c2.3,0,4.6-0.6,4.6-6.6C277.3,356,276.6,353.3,274.1,353.3"/>
	<path clip-path="url(#SVGID_4_)" fill="#989898" d="M292.1,358v8.5h-1.5c0,0-0.2-1.1-0.3-2.2c-1,1-2.8,2.3-5,2.3
		c-2.6,0-4.3-1.4-4.3-3.7c0-2.7,1.9-4.7,9.2-4.8V358c0-3.6-1-4.5-3.7-4.5c-1.9,0-4.2,0.8-4.2,0.8l-0.4-1.1c0,0,2.4-1.3,5.1-1.3
		C290.3,351.9,292.1,353.3,292.1,358 M290.2,362.4v-2.7c-4.5,0-7.3,0.8-7.3,3.1c0,1.6,1.2,2.2,2.5,2.2
		C287.1,365.1,288.8,364,290.2,362.4"/>
	<path clip-path="url(#SVGID_4_)" fill="#989898" d="M307,359.7c0,4.4-2,7.1-6,7.1c-3.3,0-5.9-2.5-5.9-7.1v-4.3
		c0-7.1,3.5-8.7,7.7-9.7l3.9-0.8l0.4,1.7l-3,0.6c-5.9,1.3-6.8,3.2-7.1,8.2c0.9-1.4,2.4-2.4,4.7-2.4C304.8,353,307,355.3,307,359.7
		 M305.1,359.7c0-3.2-1.2-5.1-3.5-5.1c-2.3,0-4.1,1.9-4.5,3.6v1.6c0,3.7,1.5,5.4,4,5.4C303.6,365.1,305.1,363.4,305.1,359.7"/>
	<path clip-path="url(#SVGID_4_)" fill="#989898" d="M321.8,359.3c0,5-3.2,7.5-6.5,7.5s-6.4-2.6-6.4-7.5c0-5,3.2-7.6,6.5-7.6
		C318.7,351.7,321.8,354.3,321.8,359.3 M319.9,359.3c0-4-2.1-5.9-4.4-5.9c-2.3,0-4.5,1.9-4.5,5.9c0,4,1.9,5.9,4.4,5.9
		C318,365.2,319.9,363.3,319.9,359.3"/>
	<polygon clip-path="url(#SVGID_4_)" fill="#989898" points="333.2,352.1 333.2,353.7 328.6,353.7 328.6,366.5 326.8,366.5 
		326.8,353.7 322.2,353.7 322.2,352.1 	"/>
	<path clip-path="url(#SVGID_4_)" fill="#989898" d="M346.4,365.2l-0.3,1.4c-2.3,0-3.4-0.8-4.3-4.6c-0.5-2.3-1.5-2.4-3.2-2.4h-1.3
		v6.8h-1.9v-14.4h1.9v6h1.6c1.3,0,2.5-0.3,2.8-2.1c0.8-3.7,2-4.1,4-4.1l0.2,1.2c-1,0.3-1.9,0.6-2.2,2.9c-0.1,0.9-0.5,1.6-1.1,2.1
		c-0.7,0.6-1.3,0.6-1.3,0.6v0.1c0,0,0.7,0.1,1.3,0.7c0.6,0.6,0.9,1.4,1.1,2.5C344.1,364.3,345.1,364.9,346.4,365.2"/>
	<path clip-path="url(#SVGID_4_)" fill="#989898" d="M357.7,364.5l0.4,1.1c0,0-1.9,1.3-4.7,1.3c-3.8,0-6.5-2.7-6.5-7.4
		c0-4.8,3.1-7.7,6.3-7.7c4.1,0,5.1,4.1,5.1,7.6l-9.5,0.2c0,4,2.6,5.7,4.9,5.7C356.2,365.2,357.7,364.5,357.7,364.5 M348.9,358.3
		c0.6-0.1,2.7-0.4,7.5-0.5c-0.1-2.3-1.1-4.5-3.2-4.5C351.3,353.3,349.3,355.1,348.9,358.3"/>
	<path clip-path="url(#SVGID_4_)" fill="#010101" d="M472.5,252.5c5.5,0,9.9-4.3,10.4-9.8c0.3-5.5-3.9-9.8-9.4-9.8
		s-9.9,4.3-10.2,9.8C462.9,248.2,467.1,252.5,472.5,252.5"/>
	<path clip-path="url(#SVGID_4_)" fill="#010101" d="M520.8,285.3c5.2,0.3,9.8-3.6,9.8-11.5c0-9.1-5.7-13.6-17.6-13.6
		c-16.2,0-23.9,10.4-23.9,21.6c0,21,23.1,19.7,23.1,30.4c0,6.9-5.7,11.2-11.1,11.2c-4.5,0-8.8-2.8-8.8-9.2c0-3.4,1.1-6.7,2.9-8.8
		c-1.5-1.4-3.4-2-5.6-2c-6.9,0-10.9,5-11.9,10.8c-0.1,0.9-0.2,1.8-0.2,2.7c-3.9,2.4-8.3,4.8-12.8,7c0.4-1.8,0.8-3.8,1.3-5.7
		l10.6-49.5c1.1-5.3-1.7-7.7-6.7-7.7c-5.9,0-10.9,2.9-15.7,6.7c-2.8,2.2-1.8,6.6,0,7.7c1.3-1.1,2.1-1.7,2.8-1.7
		c1.3,0,1.8,1.3,1.4,3.5l-8.5,39.6c-1.1,5.5-2.2,10.5-3.5,15c-23.1,10.4-42.1,18.8-42.1,36.5c0,11.6,9.1,17.2,16.9,17.2
		c24.9,0,35.3-27.6,41.7-53.6c5.9-2.7,11.7-6.1,15.9-8.8c2.5,5.5,8.6,9.6,18.7,9.6c20.6,0,28.7-10.1,28.7-23.7
		c0-17.8-23-14.6-23-29.4c0-7.6,4.3-11.3,8.1-11.3c3.4,0,6.3,2.4,6.3,7.6c0,2.8-1,5.9-2.4,7.6C517,284.6,519,285.1,520.8,285.3
		 M421.3,372.9c-1.8,0-5.7-1.7-5.7-6.6c0-10.6,11.8-17.4,28.4-25.6C437.5,362.8,430.7,372.9,421.3,372.9"/>
</g>
</svg>
