<?xml version="1.0" standalone="no"?>
<!DOCTYPE svg PUBLIC "-//W3C//DTD SVG 20010904//EN"
 "http://www.w3.org/TR/2001/REC-SVG-20010904/DTD/svg10.dtd">
<svg version="1.0" xmlns="http://www.w3.org/2000/svg"
 width="400.000000pt" height="400.000000pt" viewBox="0 0 400.000000 400.000000"
 preserveAspectRatio="xMidYMid meet">
<metadata>
Created by potrace 1.11, written by Peter Selinger 2001-2013
</metadata>
<g transform="translate(0.000000,400.000000) scale(0.100000,-0.100000)"
fill="#000000" stroke="none">
<path d="M1585 3556 c0 -30 4 -52 9 -49 5 4 6 0 1 -7 -11 -18 -12 -119 -1
-113 5 4 5 0 0 -8 -4 -8 -8 -25 -9 -39 l0 -25 -338 -5 -337 -5 85 -85 86 -85
-173 -5 -173 -5 438 -438 c368 -368 436 -440 428 -455 -9 -14 -10 -14 -11 -1
0 9 -9 15 -25 15 -29 0 -32 -8 -8 -27 15 -12 16 -12 9 6 -6 16 -5 17 5 8 10
-10 9 -15 -1 -28 -18 -22 3 -18 28 5 12 12 22 16 22 11 0 -6 -9 -15 -20 -21
-11 -6 -20 -15 -20 -21 0 -6 13 -1 29 11 18 12 32 16 36 10 3 -5 12 -10 18
-10 7 1 2 9 -11 20 -22 18 -23 48 -1 34 5 -3 7 -10 4 -15 -4 -5 -2 -9 4 -9 5
0 15 8 20 18 6 9 11 12 11 5 0 -6 -4 -15 -10 -18 -5 -3 -10 -11 -10 -17 0 -7
4 -7 13 0 6 5 29 8 50 7 34 -3 37 -1 32 19 -5 17 -4 18 4 6 6 -8 8 -22 5 -32
-2 -9 -1 -19 5 -22 10 -6 12 61 13 367 0 103 4 189 8 192 7 5 192 7 442 5 l77
0 110 -110 c61 -60 111 -114 111 -118 0 -5 -66 -8 -146 -7 -80 0 -148 -3 -151
-8 -2 -4 -10 -4 -16 0 -7 4 -51 8 -99 8 l-88 0 0 -436 0 -436 125 0 125 1 137
-137 c113 -113 135 -139 124 -149 -8 -7 -11 -8 -8 -2 9 16 -77 11 -98 -6 -14
-11 -16 -11 -13 0 4 17 -53 22 -64 6 -5 -8 -8 -7 -8 1 0 11 -42 9 -62 -3 -4
-3 -8 -1 -8 5 0 10 -25 9 -36 -2 -4 -4 -13 -2 -21 4 -10 9 -13 8 -13 -2 0 -9
-3 -10 -8 -4 -11 15 -64 17 -55 2 5 -9 3 -9 -8 -1 -15 11 -105 12 -115 1 -12
-12 -10 -866 2 -871 9 -4 1214 -1 1222 3 10 5 -26 27 -37 23 -10 -4 -12 -1 -7
7 5 8 0 20 -13 32 -22 20 -36 25 -26 9 3 -6 -1 -7 -10 -3 -12 4 -13 8 -5 13 8
5 3 16 -16 36 -15 16 -24 23 -19 15 5 -10 4 -12 -3 -7 -7 4 -12 13 -12 20 0
15 -77 86 -85 78 -3 -3 -5 0 -5 5 0 13 -72 93 -84 93 -4 0 -4 -5 -1 -11 4 -6
-2 -13 -14 -16 -18 -5 -19 -8 -9 -22 12 -14 11 -14 -4 -2 -20 15 -15 31 10 31
13 0 14 2 3 9 -11 7 -11 9 0 13 8 3 -6 24 -41 58 -37 38 -53 63 -54 82 -1 16
-5 28 -9 28 -4 0 -3 8 2 18 5 10 6 24 1 32 -4 7 -5 23 -1 34 5 12 6 28 3 36
-3 8 17 -6 43 -32 27 -26 50 -46 52 -44 3 2 4 370 3 736 l0 136 -87 -1 -88 0
-1 213 c-2 193 -1 212 14 200 9 -7 84 -82 168 -165 84 -84 155 -153 156 -153
2 0 4 198 4 440 l0 440 -373 0 -372 0 -157 158 c-86 86 -161 156 -165 154 -5
-1 -9 2 -9 8 0 15 -113 130 -122 124 -5 -3 -7 -2 -6 3 4 11 -171 189 -183 186
-5 -2 -9 2 -9 7 0 13 -84 100 -96 100 -5 0 -9 -24 -9 -54z m38 9 c-3 -9 -8
-14 -10 -11 -3 3 -2 9 2 15 9 16 15 13 8 -4z m58 -92 c13 -16 12 -17 -3 -4
-10 7 -18 15 -18 17 0 8 8 3 21 -13z m99 -47 c0 -2 -8 -10 -17 -17 -16 -13
-17 -12 -4 4 13 16 21 21 21 13z m83 -101 c-3 -9 -8 -14 -10 -11 -3 3 -2 9 2
15 9 16 15 13 8 -4z m80 -80 c-3 -9 -8 -14 -10 -11 -3 3 -2 9 2 15 9 16 15 13
8 -4z m-43 1 c0 -2 -8 -10 -17 -17 -16 -13 -17 -12 -4 4 13 16 21 21 21 13z
m101 -93 c13 -16 12 -17 -3 -4 -10 7 -18 15 -18 17 0 8 8 3 21 -13z m99 -47
c0 -2 -8 -10 -17 -17 -16 -13 -17 -12 -4 4 13 16 21 21 21 13z m-6 -44 c3 -5
-1 -9 -9 -9 -8 0 -12 4 -9 9 3 4 7 8 9 8 2 0 6 -4 9 -8z m89 -57 c-3 -9 -8
-14 -10 -11 -3 3 -2 9 2 15 9 16 15 13 8 -4z m-173 -69 c0 -2 -8 -10 -17 -17
-16 -13 -17 -12 -4 4 13 16 21 21 21 13z m200 -120 c0 -2 -8 -10 -17 -17 -16
-13 -17 -12 -4 4 13 16 21 21 21 13z m-460 -581 c0 -1 -12 -2 -26 -2 -17 0
-22 2 -13 7 10 7 39 3 39 -5z m775 -904 c3 -5 2 -12 -3 -15 -5 -3 -9 1 -9 9 0
17 3 19 12 6z m249 -249 c3 -5 -1 -9 -9 -9 -8 0 -12 4 -9 9 3 4 7 8 9 8 2 0 6
-4 9 -8z m81 -191 c3 -5 0 -13 -6 -17 -7 -4 -9 -3 -5 4 3 5 0 13 -6 15 -9 4
-10 6 -1 6 6 1 14 -3 18 -8z m35 -38 c0 -3 -7 -2 -16 1 -12 5 -15 2 -10 -9 3
-9 2 -13 -4 -10 -6 3 -10 1 -10 -4 0 -6 -5 -11 -10 -11 -6 0 -3 11 6 24 9 15
21 22 30 19 8 -3 14 -7 14 -10z m15 -34 c-4 -5 -14 -9 -23 -10 -10 0 -12 -3
-5 -6 10 -3 10 -8 -1 -19 -19 -19 -32 -18 -16 1 13 15 2 21 -16 8 -5 -5 -1 0
9 10 11 9 26 17 34 17 8 0 11 5 7 12 -4 7 -3 8 5 4 6 -4 9 -12 6 -17z m83 -70
c14 -23 14 -23 -3 -4 -9 11 -21 19 -26 18 -5 -2 -9 2 -9 8 0 17 22 5 38 -22z
m-30 -3 c14 5 14 4 2 -4 -18 -13 -30 -6 -29 16 1 16 2 16 6 0 3 -11 11 -15 21
-12z m-55 -6 c8 -11 17 -17 21 -13 4 4 4 -1 0 -10 -4 -12 -2 -17 6 -15 22 5
23 -23 1 -29 -12 -3 -21 -9 -21 -14 0 -5 -5 -9 -11 -9 -8 0 -9 4 0 13 13 16 5
27 -20 27 -28 0 -32 18 -9 37 19 16 19 18 3 25 -16 6 -16 7 -1 7 9 1 23 -8 31
-19z m-53 0 c0 -5 -5 -10 -11 -10 -5 0 -7 5 -4 10 3 6 8 10 11 10 2 0 4 -4 4
-10z m125 -20 c-3 -5 -11 -10 -16 -10 -6 0 -7 5 -4 10 3 6 11 10 16 10 6 0 7
-4 4 -10z m11 -25 c-3 -8 -2 -15 2 -15 5 0 17 -7 28 -15 10 -8 15 -14 9 -14
-19 -1 -58 36 -51 48 10 16 19 14 12 -4z m51 -9 c0 -8 -6 -12 -15 -9 -11 5
-11 7 0 14 7 5 13 9 14 9 0 0 1 -6 1 -14z m-177 -6 c8 -5 11 -10 5 -10 -5 0
-17 5 -25 10 -8 5 -10 10 -5 10 6 0 17 -5 25 -10z m225 -20 c26 -28 15 -31
-12 -3 -12 13 -19 23 -14 23 4 0 16 -9 26 -20z m-115 0 c0 -5 -4 -10 -10 -10
-5 0 -10 5 -10 10 0 6 5 10 10 10 6 0 10 -4 10 -10z m-120 -15 c0 -8 5 -15 10
-15 6 0 10 -5 10 -11 0 -14 -18 -2 -30 22 -7 13 -7 19 0 19 5 0 10 -7 10 -15z
m45 -14 c-6 -5 -25 10 -25 20 0 5 6 4 14 -3 8 -7 12 -15 11 -17z m166 14 c5 4
6 -2 2 -11 -4 -10 -2 -15 3 -12 5 4 18 0 29 -8 19 -14 19 -14 0 -28 -11 -8
-23 -12 -27 -10 -5 3 -8 1 -8 -5 0 -5 6 -12 13 -14 9 -4 9 -6 0 -6 -6 -1 -15
4 -18 9 -9 14 14 42 27 33 6 -3 9 0 6 8 -3 8 -10 14 -17 14 -13 0 -31 24 -30
40 0 6 3 4 6 -3 2 -6 9 -10 14 -7z m-111 -6 c13 -9 12 -10 -2 -5 -10 3 -22 -2
-27 -12 -12 -19 -14 -12 -5 12 7 19 14 20 34 5z m40 -4 c-15 -18 0 -20 20 -2
12 10 12 9 1 -5 -11 -15 -11 -18 -1 -18 8 0 11 -3 8 -6 -12 -11 -47 16 -42 31
4 8 11 15 16 15 6 0 5 -6 -2 -15z m60 -37 c0 -19 -16 -5 -17 14 -2 18 0 20 7
8 5 -8 10 -18 10 -22z m-201 8 c9 -11 9 -16 -1 -22 -7 -4 -10 -4 -6 1 4 4 3
14 -3 22 -6 7 -9 13 -6 13 2 0 10 -6 16 -14z m52 -29 c-11 -11 -31 0 -30 16 0
9 2 9 6 0 2 -7 9 -13 14 -13 6 0 5 9 -1 23 -11 21 -11 21 4 3 10 -12 12 -24 7
-29z m43 27 c3 -8 2 -12 -4 -9 -6 3 -10 1 -10 -6 0 -7 -2 -10 -5 -7 -5 5 4 38
10 38 2 0 6 -7 9 -16z m40 -13 c-2 -3 -12 3 -22 13 -16 17 -16 18 5 5 12 -7
20 -15 17 -18z m153 -16 c-9 -7 -13 -16 -9 -20 4 -5 1 -5 -5 -1 -18 10 -16 26
3 26 9 0 12 5 8 12 -5 7 -3 8 6 3 10 -6 10 -11 -3 -20z m-88 -39 c0 -6 -5 -1
-11 12 -6 12 -15 22 -20 22 -4 0 -8 6 -8 13 1 6 10 1 20 -12 11 -13 20 -28 19
-35z m-69 24 c6 -11 9 -21 8 -21 -18 -7 -57 -6 -52 2 3 5 14 7 25 4 14 -5 17
-2 13 9 -3 8 -13 17 -22 19 -15 4 -15 5 0 6 10 0 22 -8 28 -19z m35 -9 c-6 -5
-25 10 -25 20 0 5 6 4 14 -3 8 -7 12 -15 11 -17z m-145 15 c0 -2 -7 -7 -16
-10 -8 -3 -12 -2 -9 4 6 10 25 14 25 6z m60 -4 c0 -5 -6 -9 -12 -10 -7 0 -24
-3 -38 -7 -21 -5 -20 -4 5 9 36 17 45 19 45 8z m166 -27 c-11 -8 -24 -15 -29
-15 -4 0 -5 -4 -2 -10 3 -5 1 -10 -4 -10 -18 0 -12 17 12 33 28 20 49 21 23 2z
m72 3 c7 -7 12 -19 11 -27 0 -10 -4 -7 -9 7 -5 12 -15 22 -21 22 -8 0 -7 -5 2
-17 7 -10 10 -15 5 -11 -5 4 -18 3 -28 -3 -15 -8 -23 -8 -32 1 -8 8 -6 9 8 4
13 -5 17 -4 12 4 -5 8 -2 10 9 6 9 -4 15 -3 14 2 -4 26 9 32 29 12z m-239 -43
c0 -5 -4 -3 -9 5 -5 8 -9 22 -9 30 0 16 17 -16 18 -35z m78 18 c1 -22 -1 -24
-8 -10 -6 9 -7 22 -4 27 9 14 10 13 12 -17z m20 -5 c-3 -7 -5 -2 -5 12 0 14 2
19 5 13 2 -7 2 -19 0 -25z m183 28 c0 -3 -4 -8 -10 -11 -5 -3 -10 -1 -10 4 0
6 5 11 10 11 6 0 10 -2 10 -4z m-234 -32 c18 -14 18 -14 -6 -3 -31 14 -36 19
-24 19 6 0 19 -7 30 -16z"/>
<path d="M2875 720 c-18 -20 -18 -20 3 -20 11 0 24 -4 27 -10 8 -13 35 -13 35
1 0 5 -4 8 -10 4 -5 -3 -15 6 -23 20 l-13 26 -19 -21z"/>
<path d="M920 2244 c0 0 13 -15 29 -31 20 -21 32 -28 39 -21 6 6 8 16 6 23 -3
7 0 16 7 21 8 5 11 2 6 -8 -3 -9 0 -21 6 -27 16 -16 32 -14 18 3 -6 7 -9 20
-6 28 5 11 0 15 -17 14 -27 -1 -42 -21 -32 -39 5 -7 0 -6 -10 3 -11 8 -14 16
-7 18 20 7 11 18 -14 18 -14 0 -25 -1 -25 -2z"/>
<path d="M1036 2233 c-4 -9 -1 -22 5 -30 7 -7 10 -15 8 -16 -2 -1 -11 -8 -21
-15 -12 -10 -18 -10 -24 -1 -4 8 -3 9 4 5 7 -4 12 -3 12 3 0 15 -18 23 -25 10
-4 -6 0 -18 8 -27 13 -12 19 -13 31 -3 10 8 16 9 21 1 3 -5 11 -10 16 -10 6 0
7 5 2 13 -12 18 -10 76 2 70 5 -4 6 -2 2 2 -13 15 -35 14 -41 -2z"/>
<path d="M1085 2231 c-13 -32 -15 -60 -5 -66 6 -4 3 -16 -9 -31 l-19 -24 41
-43 c29 -30 46 -40 54 -34 7 5 10 13 7 19 -3 5 0 15 6 23 7 9 8 15 2 15 -16 0
-34 -28 -26 -42 6 -9 3 -9 -10 1 -9 8 -13 17 -9 20 4 3 10 15 11 25 3 17 2 18
-12 7 -9 -7 -13 -17 -10 -22 10 -16 -1 -9 -19 12 -18 20 -18 21 2 14 16 -5 20
-3 15 9 -3 9 -10 13 -15 10 -5 -3 -6 2 -2 11 4 11 8 13 13 5 5 -7 14 -5 31 9
13 11 19 20 14 21 -6 0 -16 -5 -21 -10 -7 -7 -16 -6 -27 3 -16 11 -14 12 15
12 18 0 39 -4 46 -8 7 -5 12 -4 12 2 0 5 -5 13 -10 16 -8 5 -7 11 0 20 17 21
-1 40 -37 41 -21 0 -34 -5 -38 -15z m30 -1 c-3 -5 -12 -10 -18 -10 -7 0 -6 4
3 10 19 12 23 12 15 0z m33 -20 c-6 -9 -22 -17 -35 -17 -26 0 -41 13 -18 15 8
1 22 3 30 4 9 1 14 7 11 14 -3 8 0 11 9 8 11 -5 12 -10 3 -24z"/>
<path d="M1175 2229 c3 -9 1 -20 -5 -24 -6 -3 -8 -11 -5 -16 9 -14 21 -11 23
6 1 8 3 22 4 30 1 8 5 12 9 9 5 -2 5 -12 2 -21 -4 -11 -3 -14 6 -9 7 5 10 14
7 22 -3 8 0 11 10 7 12 -4 12 -8 2 -21 -32 -38 -60 -62 -69 -57 -5 4 -12 -1
-15 -9 -3 -9 -12 -16 -20 -16 -8 0 -14 -4 -14 -10 0 -5 6 -9 13 -7 6 1 11 -6
11 -16 -2 -14 1 -15 12 -6 19 16 36 2 24 -20 -6 -12 -5 -22 2 -29 17 -17 33
-15 18 3 -10 12 -10 18 0 30 10 12 9 16 -4 21 -13 5 -14 9 -5 20 13 16 -2 19
-18 3 -8 -8 -13 -7 -18 2 -5 7 -4 10 3 5 6 -3 14 -1 17 5 4 5 14 8 22 5 10 -4
13 -2 10 8 -9 22 19 41 38 26 9 -8 15 -9 15 -2 0 6 -5 14 -10 17 -8 5 -7 11 0
20 17 21 -1 40 -38 41 -26 0 -31 -3 -27 -17z"/>
<path d="M1255 2232 c3 -8 1 -20 -5 -27 -11 -14 5 -33 17 -21 3 3 12 1 20 -5
9 -9 13 -8 13 0 0 6 -6 14 -14 17 -8 3 -14 14 -13 24 1 10 5 16 9 14 4 -3 8
-1 8 5 0 5 -9 9 -20 8 -13 -1 -19 -6 -15 -15z"/>
<path d="M1293 2231 c-9 -14 -9 -21 0 -30 14 -14 37 -14 37 -1 0 6 -6 9 -12 8
-8 -2 -12 6 -11 20 3 27 1 27 -14 3z"/>
<path d="M1315 2232 c-7 -20 -6 -24 4 -17 23 14 20 -18 -3 -40 -32 -30 -32
-32 2 -32 18 0 29 6 29 14 0 9 -6 12 -16 8 -12 -5 -13 -3 -4 6 13 13 37 3 28
-12 -4 -5 -1 -9 4 -9 14 0 14 22 1 38 -7 9 -7 9 2 2 18 -15 24 -12 24 10 0 13
-5 18 -16 15 -20 -6 -46 10 -31 19 6 4 11 2 11 -3 0 -6 5 -11 10 -11 6 0 10 6
10 13 0 17 -48 17 -55 -1z"/>
<path d="M1383 2235 c2 -5 10 -10 18 -10 19 0 30 -16 24 -35 -3 -10 1 -16 13
-16 14 0 19 8 19 27 0 17 -5 25 -13 22 -6 -2 -15 0 -19 6 -3 7 0 8 9 5 9 -3
16 -2 16 3 0 5 -16 9 -35 9 -20 0 -34 -5 -32 -11z"/>
<path d="M1460 2238 c0 -14 21 -19 35 -8 11 9 15 9 15 1 0 -6 5 -11 10 -11 6
0 10 6 10 13 0 8 -13 13 -35 13 -19 0 -35 -4 -35 -8z"/>
<path d="M1477 2212 c-12 -2 -16 -9 -13 -19 3 -8 1 -24 -5 -35 -9 -16 -8 -19
3 -15 7 2 12 10 10 16 -1 7 3 9 9 6 8 -5 8 -10 0 -18 -14 -14 -14 -37 0 -37 5
0 8 4 4 9 -3 6 2 14 10 19 14 7 13 12 -7 37 -12 16 -17 26 -11 22 6 -4 13 -4
16 0 2 5 2 2 1 -4 -4 -16 8 -17 24 -3 9 7 9 7 2 -2 -13 -16 -13 -38 1 -38 5 0
8 4 4 9 -9 16 15 24 31 10 10 -8 12 -15 4 -23 -13 -13 -13 -36 0 -36 6 0 9 6
8 13 -5 20 42 9 63 -16 10 -12 18 -17 19 -11 0 5 -5 15 -11 21 -8 8 -8 13 0
17 6 4 11 12 11 18 0 7 -5 7 -14 -1 -17 -14 -41 -5 -72 26 -26 26 -31 38 -11
27 7 -4 8 -3 4 2 -9 9 -51 13 -80 6z"/>
<path d="M1390 2200 c0 -5 7 -10 15 -10 8 0 15 5 15 10 0 6 -7 10 -15 10 -8 0
-15 -4 -15 -10z"/>
<path d="M1676 2192 c-11 -12 -18 -13 -29 -4 -14 12 -27 7 -27 -10 0 -5 5 -6
12 -2 7 4 8 3 4 -5 -6 -9 -11 -9 -21 -1 -8 7 -16 7 -19 2 -9 -15 25 -24 40
-11 10 8 22 0 53 -33 23 -23 41 -38 41 -31 0 6 -4 14 -10 18 -5 3 -7 12 -3 20
3 10 1 13 -9 10 -23 -9 -40 18 -25 39 12 16 15 15 44 -14 19 -20 36 -29 44
-25 7 5 10 4 5 -3 -3 -6 -2 -13 4 -17 6 -4 9 4 8 19 -2 19 -7 25 -19 21 -21
-7 -34 11 -21 28 16 19 -53 18 -72 -1z"/>
<path d="M1690 2182 c0 -21 5 -27 20 -27 8 0 16 -7 16 -15 1 -8 3 -17 4 -20 7
-16 6 -71 -1 -76 -5 -3 -7 -10 -4 -15 7 -11 26 -12 24 -1 -3 19 2 33 11 27 6
-3 10 -2 10 4 0 5 -6 11 -12 14 -7 2 -10 8 -5 12 4 5 14 0 22 -11 15 -18 16
-18 13 6 -2 14 -8 30 -14 35 -67 64 -84 77 -84 67z m75 -72 c3 -5 1 -10 -4
-10 -6 0 -11 5 -11 10 0 6 2 10 4 10 3 0 8 -4 11 -10z"/>
<path d="M1750 2180 c0 -5 5 -10 10 -10 6 0 10 5 10 10 0 6 -4 10 -10 10 -5 0
-10 -4 -10 -10z"/>
<path d="M1258 2163 c-7 -10 -22 -25 -33 -33 -20 -14 -20 -14 -2 7 12 14 15
23 8 28 -14 8 -33 -4 -25 -16 3 -5 0 -16 -6 -24 -9 -11 -9 -19 -1 -28 8 -10 7
-17 -1 -25 -8 -8 -8 -15 2 -27 7 -8 11 -17 9 -18 -2 -1 -11 -8 -21 -15 -12
-10 -18 -10 -24 -1 -4 8 -3 9 4 5 7 -4 12 -3 12 3 0 15 -18 23 -25 10 -4 -6 0
-18 8 -27 13 -12 19 -13 31 -3 10 8 16 9 21 1 3 -5 11 -10 16 -10 6 0 7 6 2
13 -14 21 -11 89 3 83 7 -3 18 2 25 10 10 13 8 14 -19 9 -17 -3 -34 -1 -37 5
-3 5 0 7 8 4 8 -3 18 -1 21 5 4 6 13 8 21 4 11 -3 13 -1 9 10 -3 8 0 18 7 23
8 5 10 3 4 -6 -4 -7 -2 -16 6 -21 11 -7 11 -9 1 -9 -7 0 -10 -5 -7 -11 5 -7
14 -4 28 8 11 10 17 12 13 6 -4 -7 -2 -13 3 -13 6 0 11 7 11 15 0 9 -8 14 -22
12 -17 -1 -22 3 -20 15 4 24 -15 31 -30 11z"/>
<path d="M1360 2140 c-19 -22 -41 -38 -47 -35 -7 2 -13 0 -13 -6 0 -6 -6 -9
-14 -6 -8 3 -20 -1 -26 -8 -7 -8 -15 -13 -19 -11 -9 6 -8 -61 1 -70 4 -3 -1
-18 -12 -32 l-20 -24 25 -20 c19 -15 29 -17 45 -8 11 6 20 16 20 22 0 6 -9 4
-23 -5 -20 -13 -24 -13 -36 0 -12 13 -11 14 9 8 13 -4 20 -3 17 2 -3 5 -2 15
3 23 7 11 3 20 -13 33 -14 11 -16 15 -5 11 11 -4 27 4 43 21 23 22 25 28 13
43 -12 15 -11 16 4 4 14 -11 17 -10 23 7 3 10 13 25 23 32 14 11 15 11 5 -1
-18 -20 -16 -35 2 -20 9 7 14 19 11 26 -6 15 18 26 40 17 14 -5 15 -3 5 15 -7
12 -15 22 -19 22 -4 0 -23 -18 -42 -40z m-63 -77 c6 -18 -37 -37 -51 -23 -6 6
-6 11 -1 10 23 -5 45 1 45 11 0 6 -9 8 -22 4 -18 -5 -20 -4 -8 4 17 12 32 10
37 -6z m-46 -96 c-10 -9 -11 -8 -5 6 3 10 9 15 12 12 3 -3 0 -11 -7 -18z"/>
<path d="M1430 2160 c0 -5 5 -10 10 -10 6 0 10 5 10 10 0 6 -4 10 -10 10 -5 0
-10 -4 -10 -10z"/>
<path d="M1535 2160 c3 -5 -5 -15 -19 -21 -14 -7 -23 -15 -21 -20 13 -20 -20
-19 -35 1 -16 22 -40 21 -40 -1 0 -6 5 -7 11 -3 6 3 21 -6 34 -22 l22 -28 8
22 c5 19 9 21 21 11 17 -14 19 2 2 21 -11 12 -10 12 5 0 11 -8 15 -20 11 -29
-3 -9 -7 -39 -9 -66 l-2 -51 39 1 c23 1 45 8 56 19 16 18 16 18 -3 11 -11 -4
-32 -9 -46 -11 -24 -3 -26 -1 -24 39 4 61 4 63 14 48 7 -11 10 -9 16 8 5 17
10 19 26 11 12 -7 19 -7 19 -1 0 6 -9 15 -19 21 -24 12 -34 13 -26 1 11 -19
-18 -24 -32 -5 -11 15 -11 19 2 27 16 8 12 27 -6 27 -6 0 -7 -4 -4 -10z"/>
<path d="M1031 2147 c-9 -12 -8 -16 3 -20 19 -7 32 11 19 24 -6 6 -14 5 -22
-4z"/>
<path d="M1390 2126 c0 -20 -29 -48 -42 -40 -7 4 -8 2 -4 -5 4 -6 11 -9 16 -6
19 12 21 -18 2 -37 -26 -26 -51 -14 -26 13 31 34 3 20 -30 -16 -19 -19 -29
-35 -24 -35 11 0 7 -32 -6 -41 -4 -4 4 -6 18 -6 19 0 24 3 17 11 -6 6 -8 21
-6 31 2 11 4 25 4 30 1 6 6 3 11 -5 6 -9 6 -18 0 -24 -6 -6 -10 -15 -10 -20 0
-6 21 11 46 37 40 42 44 50 32 65 -11 15 -11 16 3 4 14 -10 18 -10 22 2 7 18
-3 56 -14 56 -5 0 -9 -6 -9 -14z"/>
<path d="M1645 2131 c-3 -5 -1 -13 5 -16 6 -4 8 -14 6 -23 -7 -22 4 -37 27
-39 12 -1 17 4 13 14 -3 8 -6 18 -6 21 0 4 -4 1 -9 -7 -6 -9 -8 -6 -8 12 0 23
1 23 17 8 9 -9 15 -19 13 -23 -2 -5 1 -8 7 -8 6 0 5 -9 -4 -23 -14 -21 -14
-24 4 -35 21 -13 27 -3 9 15 -8 8 -8 13 0 17 17 11 13 23 -20 61 -32 36 -44
42 -54 26z"/>
<path d="M1435 2100 c3 -5 1 -10 -5 -10 -6 0 -8 -5 -4 -11 5 -8 9 -8 14 1 4 6
8 -10 8 -37 2 -73 4 -84 16 -80 6 3 9 11 7 18 -8 32 -6 87 3 82 5 -4 1 6 -10
20 -18 25 -43 39 -29 17z"/>
<path d="M1503 2083 c4 -3 -1 -11 -9 -18 -19 -13 -25 -54 -11 -72 6 -9 5 -19
-4 -30 -13 -15 -12 -15 7 -5 12 6 23 9 26 7 2 -2 4 4 4 15 0 10 -4 16 -8 14
-4 -3 -8 0 -8 6 0 6 -5 8 -12 4 -7 -4 -8 -3 -4 4 4 6 13 9 21 5 8 -3 15 0 15
6 0 10 -14 15 -33 12 -5 -1 -5 3 -2 9 4 6 13 9 20 6 8 -3 13 4 13 20 0 13 -5
24 -11 24 -6 0 -7 -3 -4 -7z"/>
<path d="M1595 2070 c20 -23 29 -21 19 4 -3 9 -13 16 -22 16 -13 0 -12 -3 3
-20z"/>
<path d="M1620 2081 c0 -5 4 -11 10 -13 5 -1 0 -14 -11 -28 -10 -14 -17 -18
-14 -9 7 18 -12 36 -36 36 -12 0 -16 -9 -15 -32 1 -34 15 -38 57 -20 23 9 30
-6 13 -29 -9 -13 -28 -20 -56 -21 -24 -2 -43 -4 -43 -5 0 -1 -8 -3 -18 -5 -11
-2 -21 -6 -24 -9 -3 -3 -13 -1 -22 4 -13 6 -17 4 -18 -9 -1 -13 5 -17 20 -16
39 5 52 10 62 23 9 11 17 7 42 -18 17 -18 36 -29 42 -25 17 10 13 23 -6 21
-10 0 -18 6 -18 14 0 8 7 15 15 15 8 0 19 5 23 10 5 6 5 -1 2 -13 -6 -21 -5
-23 13 -13 27 15 42 37 18 28 -9 -4 -15 -3 -11 2 3 5 -1 12 -7 14 -10 4 -10 6
0 6 6 1 12 7 12 15 0 8 -6 17 -12 20 -7 3 -3 3 10 0 22 -5 22 -5 5 30 -16 34
-33 48 -33 27z m-25 -40 c3 -6 -3 -9 -14 -8 -11 0 -17 5 -15 9 7 11 22 10 29
-1z"/>
<path d="M1345 2050 c-10 -11 -13 -20 -8 -20 13 0 38 29 31 35 -3 3 -13 -4
-23 -15z"/>
<path d="M1397 2048 c-8 -13 -29 -38 -47 -55 -18 -18 -28 -33 -22 -33 6 0 14
5 17 10 5 8 11 8 19 1 7 -6 15 -8 19 -5 3 3 18 7 33 9 26 2 27 2 9 -11 -10 -8
-15 -14 -11 -14 5 0 1 -11 -8 -25 -21 -33 -20 -42 3 -21 14 13 20 14 23 4 5
-14 60 -18 69 -5 3 4 20 -7 37 -24 18 -18 32 -28 32 -21 0 6 -4 13 -10 17 -5
3 -7 12 -3 20 3 11 1 13 -10 9 -18 -7 -32 12 -16 22 8 5 9 3 4 -6 -6 -10 -4
-12 8 -7 26 10 46 -45 26 -70 -13 -15 1 -18 19 -3 9 7 9 7 2 -2 -15 -17 -12
-24 8 -24 14 0 19 8 19 27 0 19 -5 25 -14 22 -7 -3 -13 0 -13 7 0 6 4 9 9 6 5
-4 12 0 14 6 4 10 6 10 6 0 1 -7 6 -10 13 -6 7 4 8 3 4 -4 -4 -7 -3 -12 3 -12
6 0 15 9 21 19 9 18 7 19 -28 16 -30 -3 -43 3 -68 27 -27 25 -32 27 -38 13 -3
-9 -10 -13 -16 -10 -5 3 -10 2 -10 -3 0 -5 -15 -9 -32 -8 -27 1 -33 6 -34 24
-1 12 2 25 7 28 4 2 6 10 3 18 -5 14 -32 15 -53 2 -7 -5 -18 -3 -24 3 -9 9 -8
11 6 5 10 -3 17 -3 16 2 -1 5 -1 16 0 24 1 12 3 12 12 -2 14 -24 38 -11 36 20
-3 34 -20 38 -40 10z m23 -8 c-12 -8 -12 -10 -1 -10 8 0 12 -3 8 -6 -9 -9 -28
6 -22 17 4 5 12 9 18 9 7 0 6 -4 -3 -10z"/>
<path d="M1670 2040 c0 -5 5 -10 10 -10 6 0 10 5 10 10 0 6 -4 10 -10 10 -5 0
-10 -4 -10 -10z"/>
<path d="M1760 2040 c-14 -9 -7 -14 13 -11 5 1 6 -3 3 -8 -4 -5 -2 -12 4 -16
6 -4 9 4 8 19 -3 29 -6 30 -28 16z"/>
<path d="M1661 2001 c-8 -14 -7 -20 4 -25 19 -7 9 -33 -16 -41 -20 -7 -27 -35
-9 -35 6 0 10 8 10 17 0 15 2 14 15 -3 14 -18 16 -18 29 -1 14 18 32 24 21 7
-3 -5 -2 -10 3 -10 8 0 22 22 22 34 0 2 -12 3 -27 2 -19 -1 -27 3 -25 13 2 8
-3 18 -10 23 -9 6 -6 7 9 3 28 -8 39 11 14 24 -26 15 -29 14 -40 -8z m24 -70
c3 -5 2 -12 -3 -15 -5 -3 -9 1 -9 9 0 17 3 19 12 6z"/>
<path d="M1722 1986 l-32 -33 35 0 c27 0 32 3 24 13 -12 15 -3 37 12 29 5 -4
9 -2 9 4 0 22 -18 18 -48 -13z"/>
<path d="M1191 1987 c-9 -12 -8 -16 3 -20 19 -7 32 11 19 24 -6 6 -14 5 -22
-4z"/>
<path d="M1750 1979 c0 -4 5 -9 12 -11 7 -3 3 -15 -12 -36 -13 -18 -29 -31
-35 -28 -7 2 -12 -7 -12 -24 0 -19 5 -26 14 -23 7 3 10 10 6 16 -4 6 -1 7 7 2
10 -6 12 -4 7 8 -4 10 1 18 13 22 11 3 19 9 19 13 -3 20 2 32 11 27 6 -3 9 4
8 19 -2 17 -8 24 -20 23 -10 -1 -18 -4 -18 -8z"/>
<path d="M1320 1940 c-18 -17 -36 -30 -40 -30 -5 0 -12 -5 -16 -12 -5 -8 0 -9
16 -5 13 3 30 1 37 -5 9 -7 13 -7 13 0 0 6 -5 14 -10 17 -15 9 9 37 26 31 7
-3 15 2 18 9 10 27 -12 25 -44 -5z"/>
<path d="M1385 1957 c-10 -8 -15 -18 -12 -24 4 -6 -3 -10 -16 -9 -24 1 -36
-16 -16 -23 6 -2 9 1 6 6 -3 5 0 10 8 10 20 0 19 -2 -10 -32 -26 -25 -41 -33
-30 -16 7 13 -12 24 -26 16 -11 -8 21 -45 33 -39 4 3 9 -5 13 -16 3 -11 13
-20 21 -20 8 0 13 -4 9 -9 -3 -5 -1 -12 4 -15 13 -9 24 11 14 26 -4 7 -14 13
-22 13 -17 0 -24 35 -10 52 8 9 15 10 30 0 16 -10 22 -9 30 3 9 13 10 13 6 -2
-7 -21 20 -32 31 -13 6 12 15 8 46 -21 35 -33 39 -34 51 -18 28 38 -63 82
-104 50 -11 -8 -13 -8 -8 1 10 17 -11 27 -28 13 -17 -14 -33 6 -17 22 6 6 8
17 5 26 -4 9 -2 13 4 9 5 -3 10 0 10 8 0 18 1 18 -22 2z m128 -94 c-4 -10 -2
-14 5 -9 6 3 13 2 16 -3 4 -5 2 -12 -3 -15 -12 -8 -34 21 -26 34 10 16 15 12
8 -7z"/>
<path d="M1590 1940 c0 -5 5 -10 10 -10 6 0 10 5 10 10 0 6 -4 10 -10 10 -5 0
-10 -4 -10 -10z"/>
<path d="M1774 1900 c0 -16 3 -30 8 -30 4 0 8 14 8 30 0 17 -4 30 -8 30 -5 0
-8 -13 -8 -30z"/>
<path d="M1750 1881 c0 -11 -9 -22 -20 -26 -11 -3 -20 -11 -20 -16 0 -11 17
-12 23 -1 2 4 2 1 1 -5 -4 -16 1 -16 25 -3 15 8 18 5 15 -15 -1 -14 2 -25 7
-25 15 0 7 69 -9 75 -7 3 -11 9 -7 14 3 5 1 12 -5 16 -5 3 -10 -3 -10 -14z"/>
<path d="M1669 1883 c-8 -51 -5 -71 7 -66 8 3 11 10 8 17 -3 6 2 2 10 -8 9
-11 14 -28 10 -38 -4 -13 -1 -16 10 -12 9 3 13 11 9 17 -3 5 -1 7 5 4 14 -10
43 3 36 15 -4 7 -9 6 -14 -1 -4 -8 -19 1 -44 24 -24 23 -32 35 -22 35 9 0 16
5 16 10 0 11 -29 14 -31 3z"/>
<path d="M1359 1878 c-7 -16 -4 -48 3 -48 6 0 7 7 4 16 -3 8 -2 12 4 9 6 -3
10 -2 10 4 0 9 -18 26 -21 19z"/>
<path d="M1385 1850 c-3 -5 -1 -18 4 -28 5 -10 7 -29 4 -42 -4 -15 -2 -21 5
-17 5 4 9 18 7 32 -3 30 19 54 28 30 4 -8 13 -12 21 -9 8 3 17 0 21 -5 3 -6
11 -8 17 -5 7 4 8 2 4 -5 -6 -9 -11 -9 -22 0 -8 6 -17 9 -20 6 -3 -3 3 -12 15
-19 12 -7 21 -18 21 -25 0 -7 4 -13 10 -13 5 0 9 10 7 23 -1 13 3 21 11 20 6
-2 12 2 12 7 0 5 -5 10 -10 10 -6 0 -21 12 -34 27 -19 22 -27 25 -38 16 -9 -8
-19 -9 -28 -3 -19 12 -27 12 -35 0z m105 -26 c0 -2 -8 0 -19 5 -10 6 -22 7
-26 3 -5 -4 -5 -1 -1 6 5 9 12 9 27 2 10 -6 19 -13 19 -16z"/>
<path d="M1624 1834 c3 -8 2 -23 -3 -33 -8 -15 -6 -18 19 -18 30 0 30 7 2 40
-14 16 -14 17 1 11 10 -3 17 -1 17 5 0 6 -9 11 -21 11 -15 0 -19 -4 -15 -16z"/>
<path d="M1542 1805 c-7 -15 -17 -23 -23 -19 -7 4 -9 0 -5 -14 13 -38 -15 -35
-52 7 -40 46 -48 50 -48 21 0 -12 5 -19 13 -16 19 8 24 -9 9 -30 -12 -16 -12
-20 5 -32 10 -7 24 -10 29 -7 12 7 4 25 -11 25 -6 0 -7 -5 -3 -12 4 -7 3 -8
-4 -4 -9 5 -8 12 1 26 11 19 12 19 19 1 3 -10 11 -21 16 -25 13 -8 54 24 48
39 -2 7 2 16 10 19 9 3 12 11 8 17 -4 8 -3 9 4 5 8 -5 6 -17 -7 -40 l-19 -33
34 1 c24 1 33 5 29 14 -3 8 -5 16 -5 18 0 2 -5 4 -11 4 -5 0 -7 -4 -4 -10 3
-5 1 -10 -4 -10 -16 0 -13 18 5 28 13 7 13 11 -3 31 l-19 23 -12 -27z"/>
<path d="M1590 1800 c0 -5 5 -10 10 -10 6 0 10 5 10 10 0 6 -4 10 -10 10 -5 0
-10 -4 -10 -10z"/>
<path d="M1670 1800 c0 -5 7 -10 15 -10 8 0 15 5 15 10 0 6 -7 10 -15 10 -8 0
-15 -4 -15 -10z"/>
<path d="M1733 1778 c-13 -6 -23 -15 -23 -21 0 -5 8 -3 17 4 14 12 16 12 8 0
-6 -11 -4 -13 9 -8 11 4 15 3 11 -4 -4 -6 -14 -8 -22 -5 -9 4 -13 1 -10 -6 2
-7 11 -11 18 -9 8 2 22 3 32 3 9 0 17 6 17 14 0 10 -5 12 -12 8 -10 -6 -10 -4
0 8 10 13 10 17 -4 22 -8 3 -16 6 -17 5 -1 0 -12 -5 -24 -11z"/>
<path d="M1423 1773 c-15 -5 -17 -23 -4 -23 5 0 11 7 15 15 3 8 4 15 3 14 -1
0 -8 -3 -14 -6z"/>
<path d="M1599 1761 c7 -12 10 -25 7 -29 -2 -4 4 -9 15 -9 11 -1 17 2 14 8 -3
5 -1 17 5 26 9 16 10 15 8 -6 -2 -13 3 -26 10 -29 7 -2 12 0 11 5 -1 4 -1 17
0 27 2 28 13 12 17 -23 3 -28 1 -30 -24 -26 -15 2 -33 5 -41 7 -7 1 -15 -2
-18 -8 -2 -6 2 -11 9 -12 7 -1 32 -3 54 -6 l41 -4 -1 39 c-1 21 -6 42 -10 46
-14 14 -61 10 -74 -6 -9 -12 -12 -12 -10 -2 2 7 -3 16 -10 18 -11 4 -12 1 -3
-16z"/>
<path d="M1513 1717 c-3 -5 -11 -6 -18 -3 -8 3 -17 -1 -22 -7 -6 -8 6 -26 34
-54 l43 -41 22 19 c22 18 22 19 3 17 -11 -2 -22 -6 -25 -9 -3 -3 -14 3 -25 14
-11 11 -15 17 -8 13 6 -3 18 2 25 11 7 10 22 25 33 33 l20 15 -20 -24 c-17
-21 -18 -23 -3 -18 10 3 20 2 23 -4 4 -5 10 -7 15 -4 4 3 7 -3 6 -12 0 -9 4
-18 9 -20 6 -2 11 6 11 17 0 11 -4 21 -8 21 -4 1 -14 2 -20 3 -7 0 -13 10 -13
21 0 16 -7 20 -38 20 -21 0 -41 -3 -44 -8z m19 -29 c-7 -7 -12 -8 -12 -2 0 5
-4 3 -9 -4 -6 -10 -10 -10 -19 1 -10 12 -8 14 14 11 20 -2 24 1 19 14 -5 14
-4 15 6 5 10 -10 10 -16 1 -25z"/>
<path d="M1714 1702 c1 -20 -4 -27 -16 -26 -10 1 -15 -2 -12 -7 3 -5 1 -9 -5
-9 -5 0 -11 6 -14 13 -5 15 -18 5 -21 -19 -4 -27 -23 -28 -40 -1 -17 24 -57
30 -64 9 -2 -7 6 -9 22 -6 34 6 41 -11 15 -34 l-20 -20 28 -26 28 -26 -30 0
c-17 0 -169 0 -339 0 -236 0 -312 -2 -324 -12 -12 -10 -14 -10 -8 0 5 9 -15
12 -89 12 l-96 0 20 -22 c20 -21 21 -21 43 -2 l23 19 -18 -22 c-19 -21 -18
-22 15 -51 21 -20 37 -27 44 -21 7 5 11 4 11 -6 0 -8 -4 -12 -9 -9 -17 11 -7
-9 14 -28 17 -14 24 -16 31 -6 6 10 7 9 4 -2 -7 -23 12 -52 29 -46 8 3 12 2 9
-3 -7 -13 43 -63 56 -56 5 3 6 -1 3 -9 -7 -19 12 -22 20 -3 3 6 3 1 0 -12 -5
-20 -3 -23 10 -18 10 4 15 3 12 -2 -8 -12 104 -122 117 -114 6 3 7 1 3 -6 -8
-12 70 -88 85 -84 5 2 6 -4 2 -13 -5 -13 -1 -15 18 -10 13 3 18 3 12 0 -19 -8
-16 -27 3 -20 8 3 12 2 9 -4 -3 -5 13 -27 36 -50 32 -32 44 -38 51 -28 8 10 9
10 5 -2 -6 -22 12 -52 28 -46 9 3 12 0 8 -10 -3 -8 1 -14 11 -14 9 0 16 -7 16
-16 0 -8 5 -12 10 -9 6 3 10 -1 10 -10 0 -9 5 -13 10 -10 6 3 10 -1 10 -10 0
-11 5 -15 14 -12 11 4 13 1 9 -10 -5 -13 -2 -15 11 -10 10 4 15 3 11 -3 -7
-12 95 -111 107 -104 5 3 8 2 7 -3 -4 -22 2 -35 15 -30 11 4 13 1 9 -10 -5
-13 -2 -15 11 -10 10 4 15 3 11 -3 -5 -8 78 -100 90 -100 3 0 5 23 5 51 0 37
-3 48 -12 43 -10 -6 -10 -4 0 7 18 19 18 644 0 633 -10 -6 -10 -5 -1 7 10 13
18 224 11 310 -1 19 -47 21 -61 4 -5 -6 -7 -4 -4 5 2 8 14 14 26 13 27 -3 28
13 1 20 -13 3 -25 -2 -33 -14 -13 -18 -14 -18 -35 1 -25 23 -30 25 -28 8 0 -7
-3 -14 -8 -15 -5 -1 -13 -7 -18 -15 -7 -9 -8 -8 -4 6 5 13 2 17 -8 13 -10 -4
-13 -1 -10 7 3 8 0 17 -7 22 -9 5 -10 2 -6 -10 4 -11 3 -15 -4 -11 -5 4 -8 12
-6 18 4 13 37 19 52 9 15 -11 78 -8 82 4 2 6 -14 10 -38 9 -34 -1 -38 1 -24
11 9 7 27 11 41 9 18 -2 24 2 20 11 -3 7 -1 16 5 19 5 4 7 10 4 14 -2 5 7 7
20 5 14 -1 25 2 25 7 0 6 5 7 10 4 6 -3 10 -2 10 3 0 15 -26 22 -38 10 -8 -8
-15 -8 -25 0 -10 9 -13 6 -13 -16z m-30 -140 c3 -5 -1 -9 -9 -9 -8 0 -12 4 -9
9 3 4 7 8 9 8 2 0 6 -4 9 -8z m-809 -42 c10 -11 16 -20 13 -20 -3 0 -13 9 -23
20 -10 11 -16 20 -13 20 3 0 13 -9 23 -20z m405 5 c-7 -9 -15 -13 -18 -10 -3
3 -12 -1 -21 -8 -14 -11 -14 -10 -2 5 7 10 17 16 21 13 5 -3 11 -1 15 5 3 5 9
10 12 10 3 0 0 -7 -7 -15z m84 -14 c-2 -3 -12 3 -22 13 -16 17 -16 18 5 5 12
-7 20 -15 17 -18z m-329 10 c-9 -8 -36 -10 -30 -2 2 4 11 8 20 8 8 0 13 -3 10
-6z m495 4 c0 -7 -30 -13 -34 -7 -3 4 4 9 15 9 10 1 19 0 19 -2z m71 -18 c-10
-9 -11 -8 -5 6 3 10 9 15 12 12 3 -3 0 -11 -7 -18z m-754 -2 c0 -8 -4 -12 -9
-9 -5 3 -6 10 -3 15 9 13 12 11 12 -6z m240 0 c0 -8 -4 -12 -9 -9 -5 3 -6 10
-3 15 9 13 12 11 12 -6z m38 6 c3 -5 2 -12 -3 -15 -5 -3 -9 1 -9 9 0 17 3 19
12 6z m202 -6 c0 -8 -4 -12 -9 -9 -5 3 -6 10 -3 15 9 13 12 11 12 -6z m243 1
c0 -2 -7 -7 -16 -10 -8 -3 -12 -2 -9 4 6 10 25 14 25 6z m-549 -39 c-10 -9
-11 -8 -5 6 3 10 9 15 12 12 3 -3 0 -11 -7 -18z m589 19 c0 -2 -7 -7 -16 -10
-8 -3 -12 -2 -9 4 6 10 25 14 25 6z m-263 -41 c0 -8 -4 -15 -9 -15 -10 0 -11
14 -1 23 9 10 10 9 10 -8z m38 6 c3 -5 2 -12 -3 -15 -5 -3 -9 1 -9 9 0 17 3
19 12 6z m-311 -11 c3 -3 -5 -6 -19 -5 -13 0 -26 2 -29 5 -3 3 5 6 19 5 13 0
26 -2 29 -5z m216 4 c0 -8 -19 -13 -24 -6 -3 5 1 9 9 9 8 0 15 -2 15 -3z m260
0 c0 -8 -19 -13 -24 -6 -3 5 1 9 9 9 8 0 15 -2 15 -3z m-575 -24 c3 -6 -1 -7
-9 -4 -18 7 -21 14 -7 14 6 0 13 -4 16 -10z m720 0 c3 -6 -1 -7 -9 -4 -18 7
-21 14 -7 14 6 0 13 -4 16 -10z m-312 -15 c-3 -9 -8 -14 -10 -11 -3 3 -2 9 2
15 9 16 15 13 8 -4z m-418 -4 c3 -5 2 -12 -3 -15 -5 -3 -9 1 -9 9 0 17 3 19
12 6z m361 -37 c1 -9 0 -13 -4 -10 -3 4 -7 14 -8 22 -1 9 0 13 4 10 3 -4 7
-14 8 -22z m-303 1 c-3 -9 -8 -14 -10 -11 -3 3 -2 9 2 15 9 16 15 13 8 -4z
m67 -1 c0 -8 -19 -13 -24 -6 -3 5 1 9 9 9 8 0 15 -2 15 -3z m204 -2 c3 -5 -1
-9 -9 -9 -8 0 -12 4 -9 9 3 4 7 8 9 8 2 0 6 -4 9 -8z m101 -1 c-9 -8 -36 -10
-30 -2 2 4 11 8 20 8 8 0 13 -3 10 -6z m-145 -15 c0 -2 -7 -7 -16 -10 -8 -3
-12 -2 -9 4 6 10 25 14 25 6z m-142 -31 c-3 -3 -9 2 -12 12 -6 14 -5 15 5 6 7
-7 10 -15 7 -18z m400 0 c-3 -3 -9 2 -12 12 -6 14 -5 15 5 6 7 -7 10 -15 7
-18z m177 16 c3 -5 2 -12 -3 -15 -5 -3 -9 1 -9 9 0 17 3 19 12 6z m-80 -10
c-9 -8 -36 -10 -30 -2 2 4 11 8 20 8 8 0 13 -3 10 -6z m165 -1 c0 -5 -5 -10
-11 -10 -5 0 -7 5 -4 10 3 6 8 10 11 10 2 0 4 -4 4 -10z m-45 -28 c-3 -3 -11
0 -18 7 -9 10 -8 11 6 5 10 -3 15 -9 12 -12z m-600 -12 c3 -5 1 -10 -4 -10 -6
0 -11 5 -11 10 0 6 2 10 4 10 3 0 8 -4 11 -10z m645 0 c0 -5 -2 -10 -4 -10 -3
0 -8 5 -11 10 -3 6 -1 10 4 10 6 0 11 -4 11 -10z m-403 -15 c0 -8 -4 -12 -9
-9 -5 3 -6 10 -3 15 9 13 12 11 12 -6z m-179 -30 c-3 -3 -9 2 -12 12 -6 14 -5
15 5 6 7 -7 10 -15 7 -18z m242 5 c0 -5 -5 -10 -11 -10 -5 0 -7 5 -4 10 3 6 8
10 11 10 2 0 4 -4 4 -10z m115 1 c-9 -8 -36 -10 -30 -2 2 4 11 8 20 8 8 0 13
-3 10 -6z m-299 -26 c-1 -8 -5 -17 -8 -21 -5 -4 -4 16 1 34 3 9 9 -1 7 -13z
m129 5 c3 -6 -1 -7 -9 -4 -18 7 -21 14 -7 14 6 0 13 -4 16 -10z m-190 -12 c5
4 5 1 1 -6 -6 -10 -11 -10 -22 -1 -8 6 -14 14 -14 16 0 3 6 0 13 -6 8 -6 18
-7 22 -3z m190 -28 c-3 -5 -12 -10 -18 -10 -7 0 -6 4 3 10 19 12 23 12 15 0z
m152 3 c-4 -3 -1 -13 6 -22 11 -14 10 -14 -5 -2 -16 12 -16 31 -1 31 4 0 3 -3
0 -7z m48 -3 c3 -6 -1 -7 -9 -4 -18 7 -21 14 -7 14 6 0 13 -4 16 -10z m128
-15 c-3 -9 -8 -14 -10 -11 -3 3 -2 9 2 15 9 16 15 13 8 -4z m-412 -8 c-6 -8
-7 -18 -3 -22 4 -5 1 -5 -6 -1 -10 6 -10 11 -1 22 6 8 14 14 16 14 3 0 0 -6
-6 -13z m149 7 c0 -8 -19 -13 -24 -6 -3 5 1 9 9 9 8 0 15 -2 15 -3z m-73 -29
c0 -8 -4 -12 -9 -9 -5 3 -6 10 -3 15 9 13 12 11 12 -6z m-82 -23 c-3 -3 -11 0
-18 7 -9 10 -8 11 6 5 10 -3 15 -9 12 -12z m50 -12 c3 -6 -1 -7 -9 -4 -18 7
-21 14 -7 14 6 0 13 -4 16 -10z m32 -25 c0 -8 -4 -12 -9 -9 -5 3 -6 10 -3 15
9 13 12 11 12 -6z m383 5 c0 -5 -2 -10 -4 -10 -3 0 -8 5 -11 10 -3 6 -1 10 4
10 6 0 11 -4 11 -10z m-2 -45 c-3 -3 -9 2 -12 12 -6 14 -5 15 5 6 7 -7 10 -15
7 -18z m-24 7 c3 -5 -1 -9 -9 -9 -8 0 -12 4 -9 9 3 4 7 8 9 8 2 0 6 -4 9 -8z
m-181 -37 c-3 -9 -8 -14 -10 -11 -3 3 -2 9 2 15 9 16 15 13 8 -4z m-122 -18
c-10 -9 -11 -8 -5 6 3 10 9 15 12 12 3 -3 0 -11 -7 -18z m264 -5 c-3 -3 1 -12
8 -21 11 -14 10 -14 -6 -2 -9 8 -15 16 -12 19 3 3 -1 12 -8 21 -11 14 -10 14
6 2 9 -8 15 -16 12 -19z m-244 -35 c-10 -9 -11 -8 -5 6 3 10 9 15 12 12 3 -3
0 -11 -7 -18z m23 -33 c3 -8 2 -12 -4 -9 -6 3 -10 10 -10 16 0 14 7 11 14 -7z
m210 8 c3 -5 -1 -9 -9 -9 -8 0 -12 4 -9 9 3 4 7 8 9 8 2 0 6 -4 9 -8z m87 -15
c-10 -9 -11 -8 -5 6 3 10 9 15 12 12 3 -3 0 -11 -7 -18z m-267 -25 c3 -5 -1
-9 -9 -9 -8 0 -12 4 -9 9 3 4 7 8 9 8 2 0 6 -4 9 -8z m274 -47 c-3 -3 -9 2
-12 12 -6 14 -5 15 5 6 7 -7 10 -15 7 -18z m-237 2 c-6 -8 -8 -16 -5 -19 3 -3
1 -9 -4 -12 -6 -3 -9 0 -8 6 2 16 15 38 23 38 3 0 0 -6 -6 -13z m149 7 c0 -8
-19 -13 -24 -6 -3 5 1 9 9 9 8 0 15 -2 15 -3z m-105 -24 c-3 -5 -12 -10 -18
-10 -7 0 -6 4 3 10 19 12 23 12 15 0z m31 -5 c-1 -8 -5 -17 -8 -21 -5 -4 -4
16 1 34 3 9 9 -1 7 -13z m109 -14 c-9 -8 -36 -10 -30 -2 2 4 11 8 20 8 8 0 13
-3 10 -6z m32 -6 c0 -8 -4 -12 -9 -9 -5 3 -6 10 -3 15 9 13 12 11 12 -6z m23
-35 c0 -5 -5 -10 -11 -10 -5 0 -7 5 -4 10 3 6 8 10 11 10 2 0 4 -4 4 -10z m0
-40 c0 -5 -2 -10 -4 -10 -3 0 -8 5 -11 10 -3 6 -1 10 4 10 6 0 11 -4 11 -10z
m-9 -53 c-10 -9 -11 -8 -5 6 3 10 9 15 12 12 3 -3 0 -11 -7 -18z m9 -21 c0 -3
-4 -8 -10 -11 -5 -3 -10 -1 -10 4 0 6 5 11 10 11 6 0 10 -2 10 -4z"/>
<path d="M1736 1678 c-7 -4 -12 -19 -10 -35 3 -34 -12 -54 -34 -46 -14 5 -15
3 -5 -7 10 -11 16 -11 30 2 10 8 24 13 31 11 8 -3 10 1 6 11 -3 9 -1 16 5 16
6 0 11 5 11 11 0 5 -4 8 -9 4 -15 -9 -25 15 -12 28 9 9 10 7 5 -8 -7 -18 -6
-19 11 -5 10 8 16 10 12 3 -4 -6 -3 -14 3 -18 6 -4 9 4 8 19 -2 25 -22 31 -52
14z"/>
<path d="M1766 1621 c-3 -4 1 -17 9 -27 14 -18 14 -17 13 9 -2 27 -12 35 -22
18z"/>
<path d="M1625 1590 c10 -11 20 -18 23 -15 7 6 -18 35 -31 35 -5 0 -2 -9 8
-20z"/>
</g>
</svg>
